<svg width="193" height="185" viewBox="0 0 193 185" fill="none" xmlns="http://www.w3.org/2000/svg">
<path d="M113.202 118.557C113.202 121.255 107.721 123.457 100.958 123.457C94.1899 123.457 88.7091 121.264 88.7091 118.557C88.7091 115.846 94.1899 113.658 100.958 113.658C107.712 113.667 113.202 115.846 113.202 118.557ZM72.1114 88.6014C66.7992 88.6014 62.4678 92.9328 62.4678 98.2583C62.4678 103.57 66.7992 107.897 72.1114 107.897C77.4324 107.897 81.7638 103.57 81.7638 98.2583C81.7638 92.9328 77.4369 88.6014 72.1114 88.6014ZM129.791 88.6014C124.474 88.6014 120.138 92.9328 120.138 98.2583C120.138 103.57 124.474 107.897 129.791 107.897C135.103 107.897 139.434 103.57 139.434 98.2583C139.434 92.9328 135.103 88.6014 129.791 88.6014ZM193 113.139C193 125.835 185.074 136.637 174.139 140.378C160.124 167.024 132.121 184.22 101.082 184.22C70.0655 184.22 42.1067 167.077 28.0874 140.489C16.9837 136.868 8.9023 125.973 8.9023 113.152C8.9023 103.974 13.0517 95.7819 19.4734 90.5274C20.0459 85.3661 20.9645 79.7034 22.2737 74.3735C10.5576 70.3971 3.0132 66.545 2.38302 66.2077C0.807562 65.3823 -0.128836 63.7003 0.0131774 61.9163C0.15519 60.1411 1.35342 58.6233 3.04427 58.0597C3.19959 58.0065 18.5148 52.8141 36.5371 37.7075C39.9099 34.8806 43.2428 31.7873 46.4603 28.7962C61.1364 15.1851 76.3141 1.10367 104.433 0.79745L106.336 0.788574C123.547 0.788574 134.291 3.90398 140.974 19.8139C141.68 19.3612 142.399 18.944 143.176 18.5846C157.528 11.8922 176.935 23.1423 186.534 43.7031C194.948 61.7565 182.731 90.4964 182.753 90.7626C188.988 96.0216 193 104.085 193 113.139ZM175.248 113.139C175.248 107.498 171.498 102.909 166.67 102.363C165.281 104.644 163.723 106.846 161.97 108.94C163.355 104.209 164.242 99.3633 164.584 94.5215C153.165 92.4446 141.343 82.5747 134.513 67.9163C134.251 67.3704 134.051 66.8246 133.82 66.2787C128.393 69.656 121.581 72.9666 113.118 76.2951C101.166 81.0037 87.8748 83.3868 73.6336 83.3868C61.3051 83.3868 49.6112 81.6294 39.3641 79.2374C38.4144 83.2138 37.6865 87.5673 37.2028 91.77C37.3581 97.5216 38.2768 103.309 39.9277 108.94C38.1747 106.832 36.6214 104.64 35.2368 102.363C30.3995 102.909 26.645 107.485 26.645 113.139C26.645 119.147 30.8877 124.007 36.1688 124.007C37.4868 124.007 38.7339 123.71 39.8789 123.173C48.5017 148.336 72.6173 166.469 101.069 166.469C129.502 166.469 153.587 148.362 162.25 123.253C163.319 123.736 164.495 124.029 165.716 124.029C171.01 124.025 175.248 119.147 175.248 113.139Z" fill="#6E6E86"/>
</svg>
