<svg width="31" height="31" viewBox="0 0 31 31" fill="none" xmlns="http://www.w3.org/2000/svg">
<path d="M25.9572 7.17748C23.4524 5.16455 19.4916 4.82355 19.3242 4.80908C19.0597 4.78635 18.8086 4.93618 18.7001 5.17798C18.696 5.18625 18.4748 5.82795 18.2609 6.44691C21.1718 6.95635 23.1496 8.08681 23.255 8.14881C23.749 8.43608 23.9143 9.06951 23.626 9.56241C23.4348 9.89101 23.0887 10.0749 22.7332 10.0749C22.5565 10.0749 22.3788 10.0305 22.2155 9.93545C22.1866 9.91788 19.285 8.26661 15.5019 8.26661C11.7179 8.26661 8.81524 9.91891 8.7863 9.93545C8.2934 10.2217 7.661 10.0532 7.37477 9.55931C7.08854 9.06745 7.2549 8.43608 7.74677 8.14881C7.85217 8.08681 9.8372 6.95221 12.7564 6.44381C12.5311 5.81761 12.3038 5.18625 12.2996 5.17798C12.1911 4.93515 11.94 4.78221 11.6755 4.80908C11.5081 4.82251 7.54734 5.16351 5.00947 7.20435C3.68267 8.42988 1.0332 15.595 1.0332 21.7898C1.0332 21.8994 1.0611 22.0058 1.11587 22.1009C2.9459 25.3145 7.93484 26.1557 9.0715 26.1918C9.07874 26.1929 9.08494 26.1929 9.09114 26.1929C9.2916 26.1929 9.4807 26.0968 9.59954 25.9345L10.8292 24.2688C8.1322 23.6188 6.7062 22.5969 6.62044 22.5338C6.16164 22.1959 6.06244 21.5491 6.40034 21.0892C6.7372 20.6315 7.382 20.5302 7.8408 20.866C7.87904 20.8908 10.5109 22.7333 15.4999 22.7333C20.5084 22.7333 23.1331 20.8836 23.1589 20.865C23.6177 20.5323 24.2646 20.6325 24.6004 21.0934C24.9352 21.5522 24.8381 22.1949 24.3814 22.5318C24.2956 22.5948 22.8768 23.6147 20.186 24.2647L21.4002 25.9335C21.519 26.0968 21.7081 26.1918 21.9086 26.1918C21.9158 26.1918 21.922 26.1918 21.9282 26.1908C23.0659 26.1546 28.0549 25.3135 29.8839 22.0998C29.9386 22.0048 29.9665 21.8983 29.9665 21.7888C29.9665 15.595 27.3171 8.42988 25.9572 7.17748ZM11.3665 19.6333C10.2247 19.6333 9.29987 18.477 9.29987 17.0499C9.29987 15.6229 10.2247 14.4666 11.3665 14.4666C12.5084 14.4666 13.4332 15.6229 13.4332 17.0499C13.4332 18.477 12.5084 19.6333 11.3665 19.6333ZM19.6332 19.6333C18.4914 19.6333 17.5665 18.477 17.5665 17.0499C17.5665 15.6229 18.4914 14.4666 19.6332 14.4666C20.775 14.4666 21.6999 15.6229 21.6999 17.0499C21.6999 18.477 20.775 19.6333 19.6332 19.6333Z" fill="#71718B"/>
</svg>
