<svg width="21" height="21" viewBox="0 0 21 21" fill="none" xmlns="http://www.w3.org/2000/svg">
<path d="M21 10.5C21 9.84035 20.9381 9.18004 20.8156 8.53896C20.7603 8.24878 20.5061 8.03906 20.2111 8.03906H10.541C10.201 8.03906 9.92578 8.31424 9.92578 8.6543V12.3457C9.92578 12.6858 10.201 12.9609 10.541 12.9609H15.5026C15.1934 13.5868 14.7674 14.1298 14.2671 14.5866L17.7444 18.0639C19.7452 16.1577 21 13.4753 21 10.5Z" fill="#8D89A3"/>
<path d="M10.5 4.92188C11.707 4.92188 12.8552 5.30521 13.8201 6.03098C14.064 6.21424 14.4083 6.19201 14.6245 5.97389L17.2501 3.34831C17.3721 3.22633 17.4375 3.0587 17.4298 2.88627C17.422 2.71384 17.3426 2.55281 17.2104 2.44166C15.3317 0.866988 12.9483 0 10.5 0C6.89678 0 3.7136 1.83151 1.83185 4.61229L5.44319 8.22363C6.30476 6.28294 8.24324 4.92188 10.5 4.92188Z" fill="#8D89A3"/>
<path d="M10.5 21C12.8486 21 15.0114 20.2125 16.759 18.9005L13.2165 15.358C12.4067 15.8139 11.4813 16.0781 10.5 16.0781C8.24325 16.0781 6.30477 14.7171 5.44319 12.7764L1.83185 16.3877C3.7136 19.1685 6.89678 21 10.5 21Z" fill="#8D89A3"/>
<path d="M5.01145 11.3863C4.96433 11.0959 4.92188 10.8035 4.92188 10.5001C4.92188 10.1967 4.96433 9.90432 5.01145 9.61397L1.1509 5.75342C0.420492 7.17994 0 8.79042 0 10.5001C0 12.2098 0.420492 13.8203 1.15094 15.2468L5.01145 11.3863Z" fill="#8D89A3"/>
</svg>
