<svg width="9" height="11" viewBox="0 0 9 11" fill="none" xmlns="http://www.w3.org/2000/svg">
<path d="M7.875 3.66667H7.3125V2.61905C7.3125 1.15238 6.075 0 4.5 0C2.925 0 1.6875 1.15238 1.6875 2.61905V3.66667H1.125C0.50625 3.66667 0 4.1381 0 4.71429V9.95238C0 10.5286 0.50625 11 1.125 11H7.875C8.49375 11 9 10.5286 9 9.95238V4.71429C9 4.1381 8.49375 3.66667 7.875 3.66667ZM4.5 8.38095C3.88125 8.38095 3.375 7.90952 3.375 7.33333C3.375 6.75714 3.88125 6.28571 4.5 6.28571C5.11875 6.28571 5.625 6.75714 5.625 7.33333C5.625 7.90952 5.11875 8.38095 4.5 8.38095ZM6.24375 3.66667H2.75625V2.61905C2.75625 1.72857 3.54375 0.995238 4.5 0.995238C5.45625 0.995238 6.24375 1.72857 6.24375 2.61905V3.66667Z" fill="#616198"/>
</svg>
