<svg width="16" height="16" viewBox="0 0 16 16" fill="none" xmlns="http://www.w3.org/2000/svg">
<path d="M1.40625 0.96875C0.629594 0.96875 0 1.59834 0 2.375C0 3.15166 0.629594 3.78125 1.40625 3.78125H14.125V0.96875H1.40625Z" fill="#31C9F8"/>
<path d="M12.7188 8.46875C11.9433 8.46875 11.3125 9.09956 11.3125 9.875C11.3125 10.6504 11.9433 11.2812 12.7188 11.2812H16V8.46875H12.7188ZM13.1875 10.3438H12.25V9.40625H13.1875V10.3438Z" fill="#31C9F8"/>
<path d="M12.7188 7.53126H16V4.71876C15.8599 4.71876 1.40625 4.71876 1.40625 4.71876C0.876625 4.71876 0.392938 4.53547 0 4.23804C0 4.45197 0 12.3609 0 12.6875C0 13.9819 1.04931 15.0313 2.34375 15.0313H16V12.2188H12.7188C11.4265 12.2188 10.375 11.1673 10.375 9.87501C10.375 8.58272 11.4265 7.53126 12.7188 7.53126Z" fill="#31C9F8"/>
</svg>
