<svg width="9" height="10" viewBox="0 0 9 10" fill="none" xmlns="http://www.w3.org/2000/svg">
<path d="M2.20956 10V8.096H0.991563V7.186H2.20956V5.94H0.991563V4.876H2.20956V0.00399935H4.84156C6.06423 0.00399935 6.96956 0.251333 7.55756 0.746C8.1549 1.24067 8.45356 1.95933 8.45356 2.902C8.45356 3.854 8.13156 4.60067 7.48756 5.142C6.84356 5.674 5.89623 5.94 4.64556 5.94H3.46956V7.186H5.77956V8.096H3.46956V10H2.20956ZM4.46356 4.876C5.3129 4.876 5.9709 4.736 6.43756 4.456C6.91356 4.176 7.15156 3.672 7.15156 2.944C7.15156 2.30933 6.95556 1.838 6.56356 1.53C6.17156 1.222 5.56023 1.068 4.72956 1.068H3.46956V4.876H4.46356Z" fill="#616198"/>
</svg>
