<svg width="17" height="16" viewBox="0 0 17 16" fill="none" xmlns="http://www.w3.org/2000/svg">
<path d="M16.9315 6.93074C16.8783 6.50398 16.6336 6.12544 16.2676 5.90401C15.9065 5.68516 15.4654 5.64566 15.0716 5.79691C14.7318 5.91409 14.3601 5.74584 14.2214 5.41205C14.0482 5.02297 13.8367 4.65247 13.59 4.30607C13.3687 4.01827 13.4105 3.60606 13.685 3.3693C14.0085 3.10098 14.1914 2.69755 14.181 2.27544C14.1728 1.84479 13.9685 1.44189 13.6269 1.18301C13.0646 0.750992 12.451 0.391468 11.8002 0.112705C11.4057 -0.0568827 10.9557 -0.03399 10.5801 0.174823C10.2125 0.377612 9.95818 0.73978 9.89072 1.15657C9.82446 1.51626 9.48838 1.75918 9.12904 1.70707C8.71096 1.66316 8.28945 1.66316 7.87136 1.70707C7.51193 1.75955 7.17558 1.51646 7.10968 1.15657C7.04219 0.73978 6.78785 0.377578 6.42028 0.174823C6.04477 -0.0340904 5.59467 -0.0569832 5.20016 0.112705C4.54712 0.389728 3.93108 0.748113 3.36643 1.17943C3.02503 1.43814 2.82067 1.84074 2.81233 2.27115C2.80293 2.6942 2.98713 3.0981 3.31186 3.36643C3.5865 3.60322 3.62801 4.01569 3.40608 4.30319C3.15931 4.64956 2.94781 5.0201 2.77477 5.40917C2.63315 5.74383 2.25771 5.90984 1.91744 5.78831C1.52555 5.63961 1.08764 5.68014 0.729203 5.89825C0.362928 6.12156 0.119077 6.50237 0.0681285 6.93071C-0.0227095 7.64179 -0.0227095 8.36164 0.0681285 9.07272C0.121369 9.49949 0.366117 9.87802 0.732026 10.0995C1.09305 10.3188 1.53429 10.3584 1.92807 10.2066C2.26787 10.0886 2.64009 10.2571 2.77832 10.5914C2.95133 10.9805 3.16283 11.3511 3.40964 11.6974C3.631 11.9852 3.58922 12.3974 3.31468 12.6342C2.99119 12.9025 2.80825 13.3059 2.81871 13.728C2.82685 14.1587 3.03117 14.5616 3.3728 14.8205C3.93726 15.2517 4.55307 15.61 5.20581 15.8872C5.60034 16.0568 6.05038 16.0339 6.42592 15.8251C6.79353 15.6223 7.04787 15.2601 7.11533 14.8433C7.18222 14.4841 7.51787 14.2415 7.87701 14.2928C8.29509 14.3367 8.7166 14.3367 9.13469 14.2928C9.49382 14.2415 9.82948 14.4841 9.89637 14.8433C9.96386 15.2601 10.2182 15.6223 10.5858 15.8251C10.7914 15.9397 11.0225 15.9999 11.2575 16C11.4459 15.9997 11.6324 15.9614 11.8059 15.8872C12.4587 15.6101 13.0745 15.2517 13.6389 14.8205C13.9803 14.5617 14.1846 14.1591 14.193 13.7287C14.2024 13.3057 14.0182 12.9018 13.6935 12.6335C13.419 12.397 13.3772 11.985 13.5985 11.6974C13.8456 11.3511 14.0573 10.9806 14.2305 10.5914C14.3701 10.2584 14.7411 10.0905 15.0808 10.2066H15.0886C15.4804 10.3558 15.9185 10.3153 16.2768 10.0966C16.6385 9.8737 16.8795 9.49674 16.9315 9.07272C17.0228 8.35977 17.0228 7.63794 16.9315 6.92498V6.93074H16.9315ZM8.49985 11.5718C6.54327 11.5718 4.95711 9.97344 4.95711 8.00175C4.95711 6.03006 6.54323 4.43171 8.49985 4.43171C10.4565 4.43171 12.0426 6.03006 12.0426 8.00175C12.0402 9.97243 10.4555 11.5694 8.49985 11.5718Z" fill="#6E6E86"/>
</svg>
