<svg width="24" height="23" viewBox="0 0 24 23" fill="none" xmlns="http://www.w3.org/2000/svg">
<g clip-path="url(#clip0)">
<path d="M19.915 12.4851C19.527 12.0155 19.638 11.8066 19.915 11.3869C19.92 11.3821 23.123 7.1405 23.453 5.70204L23.455 5.70108C23.619 5.17688 23.455 4.79163 22.662 4.79163H20.038C19.37 4.79163 19.062 5.12225 18.897 5.49217C18.897 5.49217 17.561 8.55692 15.671 10.5435C15.061 11.1176 14.779 11.3016 14.446 11.3016C14.282 11.3016 14.027 11.1176 14.027 10.5934V5.70108C14.027 5.07242 13.84 4.79163 13.287 4.79163H9.161C8.742 4.79163 8.493 5.08488 8.493 5.358C8.493 5.95408 9.438 6.09113 9.536 7.76821V11.407C9.536 12.2043 9.385 12.351 9.05 12.351C8.158 12.351 5.993 9.27375 4.71 5.75188C4.451 5.06858 4.198 4.79258 3.525 4.79258H0.9C0.151 4.79258 0 5.12321 0 5.49313C0 6.14671 0.892 9.39642 4.148 13.6898C6.318 16.6203 9.374 18.2083 12.154 18.2083C13.825 18.2083 14.029 17.8556 14.029 17.249C14.029 14.4488 13.878 14.1843 14.715 14.1843C15.103 14.1843 15.771 14.3683 17.331 15.7818C19.114 17.4579 19.407 18.2083 20.405 18.2083H23.029C23.777 18.2083 24.156 17.8556 23.938 17.1599C23.439 15.6965 20.067 12.6864 19.915 12.4851Z" fill="#71718B"/>
</g>
<defs>
<clipPath id="clip0">
<rect width="24" height="23" fill="white"/>
</clipPath>
</defs>
</svg>
