<svg width="19" height="19" viewBox="0 0 19 19" fill="none" xmlns="http://www.w3.org/2000/svg">
<path d="M13.4891 0H10.7895C8.05453 0 5.29489 2.01958 5.29489 6.53149C5.29489 8.86855 6.28545 10.6887 8.10113 11.7239L4.7778 17.739C4.62028 18.0235 4.61618 18.3459 4.76681 18.6014C4.91388 18.851 5.18273 19 5.48596 19H7.16693C7.54883 19 7.84665 18.8154 7.98939 18.492L11.1053 12.3975H11.3327V18.2404C11.3327 18.6522 11.6802 19 12.0914 19H13.5601C14.0212 19 14.3433 18.6779 14.3433 18.2168V0.831369C14.3433 0.341881 13.9921 0 13.4891 0ZM11.3328 9.69024H10.9317C9.37621 9.69024 8.44759 8.42056 8.44759 6.29387C8.44759 3.64948 9.62066 2.70732 10.7185 2.70732H11.3328V9.69024Z" fill="#8D89A3"/>
</svg>
